<?xml version="1.0" encoding="UTF-8"?>
<svg width="24px" height="24px" viewBox="0 0 24 24" version="1.1" xmlns="http://www.w3.org/2000/svg" xmlns:xlink="http://www.w3.org/1999/xlink">
    <title>icon_draw</title>
    <g id="Page-1" stroke="none" stroke-width="1" fill="none" fill-rule="evenodd">
        <g id="Apple-TV" transform="translate(-1289.000000, -471.000000)" fill="#FFFFFF">
            <g id="icon_draw" transform="translate(1289.000000, 471.000000)">
                <path d="M17.4861846,1.27454439 C18.191652,0.465608466 19.2122281,0 20.2845385,0 C22.335097,0 24,1.664903 24,3.71546149 C24,4.7877719 23.5343915,5.81305115 22.7254556,6.51851852 L12.9805996,15.0029394 L12.4961787,14.5185185 L9.4861846,11.5085244 L8.99706055,11.0194004 L17.4861846,1.27454439 Z" id="Shape" fill-rule="nonzero"></path>
                <path d="M7.92945326,12.0823045 L8.41857731,12.5714286 L11.4285714,15.5814227 L11.9176955,16.0705467 L11.0146972,19.9929453 C10.8312757,20.7971781 10.2198707,21.4368019 9.42504409,21.6578483 L1.06760729,24 L5.55437978,19.5132275 C5.67666079,19.5461493 5.80834803,19.5649618 5.94473839,19.5649618 C6.77718989,19.5649618 7.44973545,18.8924162 7.44973545,18.0599647 C7.44973545,17.2275132 6.77718989,16.5549677 5.94473839,16.5549677 C5.11228689,16.5549677 4.43974133,17.2275132 4.43974133,18.0599647 C4.43974133,18.1963551 4.45855379,18.3233392 4.4914756,18.4503233 L0,22.9323927 L2.34215168,14.579659 C2.56319812,13.7848325 3.20282187,13.1734274 4.00705467,12.9900059 L7.92945326,12.0870076 L7.92945326,12.0823045 Z" id="Path" opacity="0.4"></path>
            </g>
        </g>
    </g>
</svg>