<?xml version="1.0" encoding="UTF-8"?>
<svg width="14px" height="14px" viewBox="0 0 14 14" version="1.1" xmlns="http://www.w3.org/2000/svg" xmlns:xlink="http://www.w3.org/1999/xlink">
    <title>xmark-solid</title>
    <g id="v3擴充案" stroke="none" stroke-width="1" fill="none" fill-rule="evenodd">
        <g id="新增繪圖-儲存" transform="translate(-1541.000000, -334.000000)" fill="#000000" fill-rule="nonzero">
            <g id="Group-13" transform="translate(1204.000000, 244.000000)">
                <g id="Group-11" transform="translate(1.000000, 75.000000)">
                    <g id="del" transform="translate(321.000000, 0.000000)">
                        <g id="xmark-solid" transform="translate(15.000000, 15.000000)">
                            <path d="M13.585663,2.39091051 C14.1322817,1.84429174 14.1322817,0.956582852 13.585663,0.409964079 C13.0390442,-0.136654693 12.1513353,-0.136654693 11.6047165,0.409964079 L7,5.01905357 L2.39091051,0.41433703 C1.84429174,-0.132281743 0.956582852,-0.132281743 0.409964079,0.41433703 C-0.136654693,0.960955802 -0.136654693,1.84866469 0.409964079,2.39528346 L5.01905357,7 L0.41433703,11.6090895 C-0.132281743,12.1557083 -0.132281743,13.0434171 0.41433703,13.5900359 C0.960955802,14.1366547 1.84866469,14.1366547 2.39528346,13.5900359 L7,8.98094643 L11.6090895,13.585663 C12.1557083,14.1322817 13.0434171,14.1322817 13.5900359,13.585663 C14.1366547,13.0390442 14.1366547,12.1513353 13.5900359,11.6047165 L8.98094643,7 L13.585663,2.39091051 Z" id="Path"></path>
                        </g>
                    </g>
                </g>
            </g>
        </g>
    </g>
</svg>