<?xml version="1.0" encoding="UTF-8"?>
<svg width="21px" height="24px" viewBox="0 0 21 24" version="1.1" xmlns="http://www.w3.org/2000/svg" xmlns:xlink="http://www.w3.org/1999/xlink">
    <title>draw_mark_4_lightblue</title>
    <g id="lightblue" stroke="none" stroke-width="1" fill="none" fill-rule="evenodd">
        <g id="draw_mark_4_lightblue" fill="#16CBEF" fill-rule="nonzero">
            <path d="M3,1.5 C3,0.6703125 2.3296875,0 1.5,0 C0.6703125,0 0,0.6703125 0,1.5 L0,22.5 C0,23.3296875 0.6703125,24 1.5,24 C2.3296875,24 3,23.3296875 3,22.5 L3,16.5 L19.875,16.5 C20.4984375,16.5 21,15.9984375 21,15.375 C21,15.13125 20.9203125,14.896875 20.775,14.7 L16.5,9 L20.775,3.3 C20.9203125,3.103125 21,2.86875 21,2.625 C21,2.0015625 20.4984375,1.5 19.875,1.5 L3,1.5 Z" id="Path"></path>
        </g>
    </g>
</svg>