<?xml version="1.0" encoding="UTF-8"?>
<svg width="18.0066564px" height="24px" viewBox="0 0 18.0066564 24" version="1.1" xmlns="http://www.w3.org/2000/svg" xmlns:xlink="http://www.w3.org/1999/xlink">
    <title>draw_mark_1_lightblue</title>
    <g id="lightblue" stroke="none" stroke-width="1" fill="none" fill-rule="evenodd">
        <g id="draw_mark_1_lightblue" fill="#16CBEF" fill-rule="nonzero">
            <path d="M10.5038641,16.5 L10.5038641,22.5 C10.5038641,23.3296875 9.83355157,24 9.00386407,24 C8.17417657,24 7.50386407,23.3296875 7.50386407,22.5 L7.50386407,16.5 L1.50386407,16.5 C1.02105157,16.5 0.571051571,16.2703125 0.285114071,15.8765625 C-0.000823428527,15.4828125 -0.0758234285,14.98125 0.0788640715,14.5265625 L0.125739071,14.3859375 C0.772614071,12.440625 2.13198907,10.8796875 3.85230157,9.946875 L4.38667657,3 L3.00386407,3 C2.17417657,3 1.50386407,2.3296875 1.50386407,1.5 C1.50386407,0.6703125 2.17417657,0 3.00386407,0 L15.0038641,0 C15.8335516,0 16.5038641,0.6703125 16.5038641,1.5 C16.5038641,2.3296875 15.8335516,3 15.0038641,3 L13.6210516,3 L14.1554266,9.946875 C15.8757391,10.8796875 17.2351141,12.440625 17.8819891,14.3859375 L17.9288641,14.5265625 C18.0835516,14.9859375 18.0038641,15.4875 17.7226141,15.8765625 C17.4413641,16.265625 16.9866766,16.5 16.5038641,16.5 L10.5038641,16.5 Z" id="Combined-Shape"></path>
        </g>
    </g>
</svg>