<?xml version="1.0" encoding="UTF-8"?>
<svg width="21px" height="24px" viewBox="0 0 21 24" version="1.1" xmlns="http://www.w3.org/2000/svg" xmlns:xlink="http://www.w3.org/1999/xlink">
    <title>draw_mark_5_purple</title>
    <g id="purple" stroke="none" stroke-width="1" fill="none" fill-rule="evenodd">
        <g id="Group-7-Copy-114" transform="translate(-12.000000, -10.000000)" fill="#8E16EF" fill-rule="nonzero">
            <g id="draw_mark_5_purple" transform="translate(12.000000, 10.000000)">
                <path d="M3,1.5 C3,0.6703125 2.3296875,0 1.5,0 C0.6703125,0 0,0.6703125 0,1.5 L0,3 L0,17.25 L0,22.5 C0,23.3296875 0.6703125,24 1.5,24 C2.3296875,24 3,23.3296875 3,22.5 L3,16.5 L6.0140625,15.7453125 C7.940625,15.2625 9.9796875,15.4875 11.75625,16.3734375 C13.828125,17.409375 16.2328125,17.5359375 18.3984375,16.7203125 L20.025,16.1109375 C20.6109375,15.890625 21,15.3328125 21,14.7046875 L21,3.0984375 C21,2.0203125 19.865625,1.3171875 18.9,1.8 L18.45,2.025 C16.2796875,3.1125 13.725,3.1125 11.5546875,2.025 C9.909375,1.2 8.0203125,0.99375 6.234375,1.4390625 L3,2.25 L3,1.5 Z" id="Path"></path>
            </g>
        </g>
    </g>
</svg>