<?xml version="1.0" encoding="UTF-8"?>
<svg width="24px" height="21.3384253px" viewBox="0 0 24 21.3384253" version="1.1" xmlns="http://www.w3.org/2000/svg" xmlns:xlink="http://www.w3.org/1999/xlink">
    <title>draw_symbo_1</title>
    <g id="v3擴充案" stroke="none" stroke-width="1" fill="none" fill-rule="evenodd">
        <g id="新增繪圖-儲存" transform="translate(-741.000000, -669.000000)" fill="#979797" fill-rule="nonzero">
            <g id="Group-11" transform="translate(480.000000, 638.000000)">
                <g id="Group-9" transform="translate(149.000000, 20.000000)">
                    <g id="Group-7-Copy-4" transform="translate(102.000000, 0.000000)">
                        <g id="anchor-solid" transform="translate(10.000000, 11.000000)">
                            <path d="M13.3385996,4.00095474 C13.3385996,4.73751017 12.7415035,5.33460632 12.0049481,5.33460632 C11.2683926,5.33460632 10.6712965,4.73751017 10.6712965,4.00095474 C10.6712965,3.26439931 11.2683926,2.66730316 12.0049481,2.66730316 C12.7415035,2.66730316 13.3385996,3.26439931 13.3385996,4.00095474 L13.3385996,4.00095474 Z M14.2179761,7.33508369 C15.2974004,6.61824597 16.0059028,5.39295358 16.0059028,4.00095474 C16.0059028,1.79209431 14.2138085,0 12.0049481,0 C9.79608762,0 8.00399331,1.79209431 8.00399331,4.00095474 C8.00399331,5.39295358 8.71249571,6.61824597 9.79191996,7.33508369 L9.33764489,7.33508369 C8.59996886,7.33508369 8.00399331,7.93105924 8.00399331,8.66873527 C8.00399331,9.4064113 8.59996886,10.0023869 9.33764489,10.0023869 L10.6712965,10.0023869 L10.6712965,18.6711221 L8.6708191,18.6711221 C6.46195867,18.6711221 4.66986436,16.8790278 4.66986436,14.6701674 L4.66986436,14.4159401 L4.96160064,14.7076763 C5.3533608,15.0994365 5.9868453,15.0994365 6.37443779,14.7076763 C6.76203028,14.3159162 6.76619794,13.6824317 6.37443779,13.2948392 L4.04471518,10.9609489 C3.65295503,10.5691888 3.01947053,10.5691888 2.63187804,10.9609489 L0.293820114,13.2948392 C-0.0979400379,13.6865993 -0.0979400379,14.3200838 0.293820114,14.7076763 C0.685580265,15.0952688 1.31906477,15.0994365 1.70665726,14.7076763 L1.99839354,14.4159401 L1.99839354,14.6701674 C1.99839354,18.3543799 4.98243895,21.3384253 8.66665144,21.3384253 L12.0007804,21.3384253 L15.3349093,21.3384253 C19.0191218,21.3384253 22.0031672,18.3543799 22.0031672,14.6701674 L22.0031672,14.4159401 L22.2949035,14.7076763 C22.6866637,15.0994365 23.3201482,15.0994365 23.7077407,14.7076763 C24.0953332,14.3159162 24.0995008,13.6824317 23.7077407,13.2948392 L21.3738504,10.9609489 C20.9820903,10.5691888 20.3486058,10.5691888 19.9610133,10.9609489 L17.627123,13.2948392 C17.2353628,13.6865993 17.2353628,14.3200838 17.627123,14.7076763 C18.0188831,15.0952688 18.6523676,15.0994365 19.0399601,14.7076763 L19.3316964,14.4159401 L19.3316964,14.6701674 C19.3316964,16.8790278 17.5396021,18.6711221 15.3307417,18.6711221 L13.3385996,18.6711221 L13.3385996,10.0023869 L14.6722512,10.0023869 C15.4099272,10.0023869 16.0059028,9.4064113 16.0059028,8.66873527 C16.0059028,7.93105924 15.4099272,7.33508369 14.6722512,7.33508369 L14.2179761,7.33508369 Z" id="Shape"></path>
                        </g>
                    </g>
                </g>
            </g>
        </g>
    </g>
</svg>