<?xml version="1.0" encoding="UTF-8"?>
<svg width="33.9411255px" height="33.9411255px" viewBox="0 0 33.9411255 33.9411255" version="1.1" xmlns="http://www.w3.org/2000/svg" xmlns:xlink="http://www.w3.org/1999/xlink">
    <title>draw_symbo_12_blue</title>
    <g id="blue" stroke="none" stroke-width="1" fill="none" fill-rule="evenodd">
        <g id="Group-7-Copy-81" transform="translate(-5.029437, -5.029437)" fill="#308ED6" fill-rule="nonzero">
            <g id="draw_symbo_12_blue" transform="translate(22.000000, 22.000000) scale(-1, 1) translate(-22.000000, -22.000000) translate(5.029437, 5.029437)">
                <path d="M4.97056275,16.9705627 C4.97056275,23.5979797 10.3431458,28.9705627 16.9705627,28.9705627 C23.5979797,28.9705627 28.9705627,23.5979797 28.9705627,16.9705627 C28.9705627,10.3431458 23.5979797,4.97056275 16.9705627,4.97056275 C10.3431458,4.97056275 4.97056275,10.3431458 4.97056275,16.9705627 Z M18.7799377,11.3033752 L23.4627502,16.3236877 C23.6268127,16.5018127 23.7205627,16.7315002 23.7205627,16.9705627 C23.7205627,17.2096252 23.6268127,17.4440002 23.4627502,17.6174377 L18.7799377,22.6377502 C18.5830627,22.8486877 18.3065002,22.9705627 18.0158752,22.9705627 C17.4393127,22.9705627 16.9705627,22.5018127 16.9705627,21.9252502 L16.9705627,19.2205627 L12.4705627,19.2205627 C11.6408752,19.2205627 10.9705627,18.5502502 10.9705627,17.7205627 L10.9705627,16.2205627 C10.9705627,15.3908752 11.6408752,14.7205627 12.4705627,14.7205627 L16.9705627,14.7205627 L16.9705627,12.0158752 C16.9705627,11.4393127 17.4393127,10.9705627 18.0158752,10.9705627 C18.3065002,10.9705627 18.5830627,11.0924377 18.7799377,11.3033752 Z" id="Shape" transform="translate(16.970563, 16.970563) rotate(-45.000000) translate(-16.970563, -16.970563) "></path>
            </g>
        </g>
    </g>
</svg>