<?xml version="1.0" encoding="UTF-8"?>
<svg width="24px" height="23.2728406px" viewBox="0 0 24 23.2728406" version="1.1" xmlns="http://www.w3.org/2000/svg" xmlns:xlink="http://www.w3.org/1999/xlink">
    <title>draw_mark_7_yellow</title>
    <g id="Page-1" stroke="none" stroke-width="1" fill="none" fill-rule="evenodd">
        <g id="Group-7-Copy-20" transform="translate(-10.000000, -10.000000)" fill="#EFC816" fill-rule="nonzero">
            <g id="draw_mark_7_yellow" transform="translate(10.000000, 10.000000)">
                <path d="M13.3056863,0.818094216 C13.064803,0.31814775 12.5557666,0 11.9967356,0 C11.4377045,0 10.9332131,0.31814775 10.6877848,0.818094216 L7.76537051,6.8310867 L1.23879666,7.79461989 C0.693400513,7.87642931 0.238903726,8.25820661 0.0707399151,8.78087791 C-0.0974238958,9.30354922 0.0389251401,9.88076014 0.429792376,10.2670824 L5.16564889,14.9529443 L4.0475868,21.5749625 C3.95668744,22.1203586 4.18393583,22.6748447 4.63388765,22.9975374 C5.08383947,23.3202301 5.67923026,23.3611348 6.17008679,23.1020717 L12.0012806,19.9887687 L17.8324743,23.1020717 C18.3233309,23.3611348 18.9187216,23.3247751 19.3686735,22.9975374 C19.8186253,22.6702997 20.0458737,22.1203586 19.9549743,21.5749625 L18.8323673,14.9529443 L23.5682238,10.2670824 C23.959091,9.88076014 24.099985,9.30354922 23.9272762,8.78087791 C23.7545675,8.25820661 23.3046156,7.87642931 22.7592195,7.79461989 L16.2281007,6.8310867 L13.3056863,0.818094216 Z" id="Path"></path>
            </g>
        </g>
    </g>
</svg>