<?xml version="1.0" encoding="UTF-8"?>
<svg width="21px" height="24px" viewBox="0 0 21 24" version="1.1" xmlns="http://www.w3.org/2000/svg" xmlns:xlink="http://www.w3.org/1999/xlink">
    <title>draw_mark_4</title>
    <g id="v3擴充案" stroke="none" stroke-width="1" fill="none" fill-rule="evenodd">
        <g id="新增繪圖-儲存" transform="translate(-905.000000, -793.000000)" fill="#979797" fill-rule="nonzero">
            <g id="Group-11" transform="translate(480.000000, 638.000000)">
                <g id="Group-8" transform="translate(149.000000, 145.000000)">
                    <g id="Group-7-Copy-6" transform="translate(264.000000, 0.000000)">
                        <g id="draw_mark_4" transform="translate(12.000000, 10.000000)">
                            <path d="M3,1.5 C3,0.6703125 2.3296875,0 1.5,0 C0.6703125,0 0,0.6703125 0,1.5 L0,22.5 C0,23.3296875 0.6703125,24 1.5,24 C2.3296875,24 3,23.3296875 3,22.5 L3,16.5 L19.875,16.5 C20.4984375,16.5 21,15.9984375 21,15.375 C21,15.13125 20.9203125,14.896875 20.775,14.7 L16.5,9 L20.775,3.3 C20.9203125,3.103125 21,2.86875 21,2.625 C21,2.0015625 20.4984375,1.5 19.875,1.5 L3,1.5 Z" id="Path"></path>
                        </g>
                    </g>
                </g>
            </g>
        </g>
    </g>
</svg>