<?xml version="1.0" encoding="UTF-8"?>
<svg width="24px" height="21.0015033px" viewBox="0 0 24 21.0015033" version="1.1" xmlns="http://www.w3.org/2000/svg" xmlns:xlink="http://www.w3.org/1999/xlink">
    <title>draw_symbo_7_lightblue</title>
    <g id="lightblue" stroke="none" stroke-width="1" fill="none" fill-rule="evenodd">
        <g id="draw_symbo_7_lightblue" fill="#16CBEF" fill-rule="nonzero">
            <g id="triangle-exclamation-solid-(1)">
                <path d="M11.9991288,0 C12.6648014,0 13.2789079,0.351587667 13.616432,0.928191441 L23.7421568,18.1794263 C24.0843688,18.7607179 24.0843688,19.4779568 23.7515325,20.0592484 C23.4186962,20.64054 22.7952141,21.0015033 22.1248536,21.0015033 L1.87340395,21.0015033 C1.20304346,21.0015033 0.57956133,20.64054 0.246725006,20.0592484 C-0.0861113192,19.4779568 -0.0814234837,18.7560301 0.256100677,18.1794263 L10.3818255,0.928191441 C10.7193496,0.351587667 11.3334561,0 11.9991288,0 Z M11.9991288,6.00042952 C11.3756466,6.00042952 10.8740482,6.50202792 10.8740482,7.12551005 L10.8740482,12.3758859 C10.8740482,12.999368 11.3756466,13.5009664 11.9991288,13.5009664 C12.6226109,13.5009664 13.1242093,12.999368 13.1242093,12.3758859 L13.1242093,7.12551005 C13.1242093,6.50202792 12.6226109,6.00042952 11.9991288,6.00042952 Z M13.4992361,16.5011812 C13.4992361,15.6726947 12.8276152,15.0010738 11.9991288,15.0010738 C11.1706423,15.0010738 10.4990214,15.6726947 10.4990214,16.5011812 C10.4990214,17.3296676 11.1706423,18.0012886 11.9991288,18.0012886 C12.8276152,18.0012886 13.4992361,17.3296676 13.4992361,16.5011812 Z" id="Shape"></path>
            </g>
        </g>
    </g>
</svg>