<?xml version="1.0" encoding="UTF-8"?>
<svg width="33.9411255px" height="33.9411255px" viewBox="0 0 33.9411255 33.9411255" version="1.1" xmlns="http://www.w3.org/2000/svg" xmlns:xlink="http://www.w3.org/1999/xlink">
    <title>draw_symbo_15</title>
    <g id="v3擴充案" stroke="none" stroke-width="1" fill="none" fill-rule="evenodd">
        <g id="新增繪圖-儲存" transform="translate(-1060.029437, -717.029437)" fill="#979797" fill-rule="nonzero">
            <g id="Group-11" transform="translate(480.000000, 638.000000)">
                <g id="Group-9" transform="translate(149.000000, 20.000000)">
                    <g id="Group-8-Copy-2" transform="translate(0.000000, 54.000000)">
                        <g id="Group-7-Copy-11" transform="translate(426.000000, 0.000000)">
                            <g id="draw_symbo_15" transform="translate(22.000000, 22.000000) scale(1, -1) rotate(-45.000000) translate(-22.000000, -22.000000) translate(10.000000, 10.000000)">
                                <path d="M12,24 C18.627417,24 24,18.627417 24,12 C24,5.372583 18.627417,0 12,0 C5.372583,0 0,5.372583 0,12 C0,18.627417 5.372583,24 12,24 Z M6.3328125,10.190625 L11.353125,5.5078125 C11.53125,5.34375 11.7609375,5.25 12,5.25 C12.2390625,5.25 12.4734375,5.34375 12.646875,5.5078125 L17.6671875,10.190625 C17.878125,10.3875 18,10.6640625 18,10.9546875 C18,11.53125 17.53125,12 16.9546875,12 L14.25,12 L14.25,16.5 C14.25,17.3296875 13.5796875,18 12.75,18 L11.25,18 C10.4203125,18 9.75,17.3296875 9.75,16.5 L9.75,12 L7.0453125,12 C6.46875,12 6,11.53125 6,10.9546875 C6,10.6640625 6.121875,10.3875 6.3328125,10.190625 Z" id="Shape"></path>
                            </g>
                        </g>
                    </g>
                </g>
            </g>
        </g>
    </g>
</svg>