<?xml version="1.0" encoding="UTF-8"?>
<svg width="17.9964851px" height="24px" viewBox="0 0 17.9964851 24" version="1.1" xmlns="http://www.w3.org/2000/svg" xmlns:xlink="http://www.w3.org/1999/xlink">
    <title>draw_symbo_0_pink</title>
    <g id="pink" stroke="none" stroke-width="1" fill="none" fill-rule="evenodd">
        <g id="Group-7-Copy-93" transform="translate(-13.000000, -10.000000)" fill="#D430DA" fill-rule="nonzero">
            <g id="bolt-lightning-solid" transform="translate(13.000000, 10.000000)">
                <path d="M0,11.9976567 L1.33567663,1.3122437 C1.42940832,0.562390158 2.06678383,0 2.82601054,0 L10.7275923,0 C11.43058,0 11.9976567,0.567076743 11.9976567,1.27006444 C11.9976567,1.42003515 11.9695372,1.57469244 11.9179848,1.71528998 L9.74809607,7.49853544 L16.2765085,7.49853544 C17.2231986,7.49853544 17.9964851,8.26713533 17.9964851,9.21851201 C17.9964851,9.56531927 17.8933802,9.90275337 17.6965436,10.188635 L8.68892794,23.3579379 C8.41241945,23.7609842 7.95782074,24 7.47510252,24 L7.33919156,24 C6.60339777,24 6.00351494,23.4001172 6.00351494,22.6643234 C6.00351494,22.5565319 6.01757469,22.4487405 6.0456942,22.340949 L8.24838899,13.4973638 L1.49970709,13.4973638 C0.670181605,13.4973638 0,12.8271822 0,11.9976567 Z" id="Path"></path>
            </g>
        </g>
    </g>
</svg>