<?xml version="1.0" encoding="UTF-8"?>
<svg width="24px" height="24px" viewBox="0 0 24 24" version="1.1" xmlns="http://www.w3.org/2000/svg" xmlns:xlink="http://www.w3.org/1999/xlink">
    <title>draw_symbo_6_blue</title>
    <g id="blue" stroke="none" stroke-width="1" fill="none" fill-rule="evenodd">
        <g id="Group-7-Copy-75" transform="translate(-10.000000, -10.000000)" fill="#308ED6" fill-rule="nonzero">
            <g id="circle-exclamation-solid" transform="translate(10.000000, 10.000000)">
                <path d="M12,24 C18.627417,24 24,18.627417 24,12 C24,5.372583 18.627417,0 12,0 C5.372583,0 0,5.372583 0,12 C0,18.627417 5.372583,24 12,24 Z M12,6 C12.6234375,6 13.125,6.5015625 13.125,7.125 L13.125,12.375 C13.125,12.9984375 12.6234375,13.5 12,13.5 C11.3765625,13.5 10.875,12.9984375 10.875,12.375 L10.875,7.125 C10.875,6.5015625 11.3765625,6 12,6 Z M10.5,16.5 C10.5,15.6715729 11.1715729,15 12,15 C12.8284271,15 13.5,15.6715729 13.5,16.5 C13.5,17.3284271 12.8284271,18 12,18 C11.1715729,18 10.5,17.3284271 10.5,16.5 Z" id="Shape"></path>
            </g>
        </g>
    </g>
</svg>