<?xml version="1.0" encoding="UTF-8"?>
<svg width="24px" height="24px" viewBox="0 0 24 24" version="1.1" xmlns="http://www.w3.org/2000/svg" xmlns:xlink="http://www.w3.org/1999/xlink">
    <title>draw_symbo_8_yellow</title>
    <g id="Page-1" stroke="none" stroke-width="1" fill="none" fill-rule="evenodd">
        <g id="Group-7-Copy-29" transform="translate(-11.000000, -10.000000)" fill="#EFC816" fill-rule="nonzero">
            <g id="draw_symbo_8_yellow" transform="translate(11.000000, 10.000000)">
                <g id="circle-right-solid-copy" transform="translate(12.000000, 12.000000) scale(-1, 1) translate(-12.000000, -12.000000) ">
                    <path d="M0,12 C0,18.627417 5.372583,24 12,24 C18.627417,24 24,18.627417 24,12 C24,5.372583 18.627417,0 12,0 C5.372583,0 0,5.372583 0,12 Z M13.809375,6.3328125 L18.4921875,11.353125 C18.65625,11.53125 18.75,11.7609375 18.75,12 C18.75,12.2390625 18.65625,12.4734375 18.4921875,12.646875 L13.809375,17.6671875 C13.6125,17.878125 13.3359375,18 13.0453125,18 C12.46875,18 12,17.53125 12,16.9546875 L12,14.25 L7.5,14.25 C6.6703125,14.25 6,13.5796875 6,12.75 L6,11.25 C6,10.4203125 6.6703125,9.75 7.5,9.75 L12,9.75 L12,7.0453125 C12,6.46875 12.46875,6 13.0453125,6 C13.3359375,6 13.6125,6.121875 13.809375,6.3328125 Z" id="Shape"></path>
                </g>
            </g>
        </g>
    </g>
</svg>