<?xml version="1.0" encoding="UTF-8"?>
<svg width="24px" height="19.1985001px" viewBox="0 0 24 19.1985001" version="1.1" xmlns="http://www.w3.org/2000/svg" xmlns:xlink="http://www.w3.org/1999/xlink">
    <title>draw_symbo_2_purple</title>
    <g id="purple" stroke="none" stroke-width="1" fill="none" fill-rule="evenodd">
        <g id="Group-7-Copy-119" transform="translate(-10.000000, -12.000000)" fill="#8E16EF" fill-rule="nonzero">
            <g id="anchor-circle-check-solid" transform="translate(10.000000, 12.000000)">
                <path d="M12.0009374,3.59971877 C12.0009374,4.2624087 11.4637211,4.79962503 10.8010312,4.79962503 C10.1383412,4.79962503 9.60112491,4.2624087 9.60112491,3.59971877 C9.60112491,2.93702884 10.1383412,2.39981251 10.8010312,2.39981251 C11.4637211,2.39981251 12.0009374,2.93702884 12.0009374,3.59971877 L12.0009374,3.59971877 Z M12.7921256,6.59948442 C13.7632997,5.9545348 14.4007499,4.85212093 14.4007499,3.59971877 C14.4007499,1.61237403 12.7883759,0 10.8010312,0 C8.81368643,0 7.2013124,1.61237403 7.2013124,3.59971877 C7.2013124,4.85212093 7.8387626,5.9545348 8.80993672,6.59948442 L8.40121865,6.59948442 C7.73752051,6.59948442 7.2013124,7.13569252 7.2013124,7.79939067 C7.2013124,8.46308882 7.73752051,8.99929693 8.40121865,8.99929693 L9.60112491,8.99929693 L9.60112491,16.7986876 L7.80126553,16.7986876 C5.81392079,16.7986876 4.20154675,15.1863136 4.20154675,13.1989688 L4.20154675,12.9702367 L4.46402625,13.2327162 C4.81649871,13.5851887 5.38645418,13.5851887 5.73517694,13.2327162 C6.0838997,12.8802437 6.0876494,12.3102883 5.73517694,11.9615655 L3.6390907,9.86172955 C3.28661823,9.50925709 2.71666276,9.50925709 2.36794,9.86172955 L0.264354347,11.9615655 C-0.0881181158,12.314038 -0.0881181158,12.8839934 0.264354347,13.2327162 C0.61682681,13.581439 1.18678228,13.5851887 1.53550504,13.2327162 L1.79798453,12.9702367 L1.79798453,13.1989688 C1.79798453,16.5137099 4.48277478,19.1985001 7.79751582,19.1985001 L10.7972815,19.1985001 L13.7970471,19.1985001 C14.1045231,19.1985001 14.4082494,19.1760019 14.7044762,19.1310054 C13.8720412,18.5235528 13.1895946,17.7248652 12.7171315,16.7986876 L12.0009374,16.7986876 L12.0009374,13.798922 L12.0009374,8.99929693 L13.2008437,8.99929693 C13.8645418,8.99929693 14.4007499,8.46308882 14.4007499,7.79939067 C14.4007499,7.13569252 13.8645418,6.59948442 13.2008437,6.59948442 L12.7921256,6.59948442 Z M24,13.798922 C24,10.8168173 21.5825265,8.3993438 18.6004218,8.3993438 C15.6183172,8.3993438 13.2008437,10.8168173 13.2008437,13.798922 C13.2008437,16.7810266 15.6183172,19.1985001 18.6004218,19.1985001 C21.5825265,19.1985001 24,16.7810266 24,13.798922 Z M21.1239747,12.1752988 C21.3564565,12.4077806 21.3564565,12.7902508 21.1239747,13.0227326 L18.4241856,15.7225217 C18.1917038,15.9550035 17.8092337,15.9550035 17.5767518,15.7225217 L16.076869,14.2226389 C15.8443872,13.990157 15.8443872,13.6076869 16.076869,13.3752051 C16.3093508,13.1427232 16.691821,13.1427232 16.9243028,13.3752051 L18.0004687,14.451371 L20.2765409,12.1752988 C20.5090227,11.942817 20.8914929,11.942817 21.1239747,12.1752988 L21.1239747,12.1752988 Z" id="Shape"></path>
            </g>
        </g>
    </g>
</svg>