<?xml version="1.0" encoding="UTF-8"?>
<svg width="24px" height="24px" viewBox="0 0 24 24" version="1.1" xmlns="http://www.w3.org/2000/svg" xmlns:xlink="http://www.w3.org/1999/xlink">
    <title>draw_symbo_5_lightblue</title>
    <g id="lightblue" stroke="none" stroke-width="1" fill="none" fill-rule="evenodd">
        <g id="draw_symbo_5_lightblue" fill="#16CBEF" fill-rule="nonzero">
            <g id="circle-check-solid">
                <path d="M12,24 C18.627417,24 24,18.627417 24,12 C24,5.372583 18.627417,0 12,0 C5.372583,0 0,5.372583 0,12 C0,18.627417 5.372583,24 12,24 Z M17.296875,9.796875 L11.296875,15.796875 C10.85625,16.2375 10.14375,16.2375 9.7078125,15.796875 L6.7078125,12.796875 C6.2671875,12.35625 6.2671875,11.64375 6.7078125,11.2078125 C7.1484375,10.771875 7.8609375,10.7671875 8.296875,11.2078125 L10.5,13.4109375 L15.703125,8.203125 C16.14375,7.7625 16.85625,7.7625 17.2921875,8.203125 C17.728125,8.64375 17.7328125,9.35625 17.2921875,9.7921875 L17.296875,9.796875 Z" id="Shape"></path>
            </g>
        </g>
    </g>
</svg>