<?xml version="1.0" encoding="UTF-8"?>
<svg width="24px" height="24px" viewBox="0 0 24 24" version="1.1" xmlns="http://www.w3.org/2000/svg" xmlns:xlink="http://www.w3.org/1999/xlink">
    <title>draw_ui_6_yellow</title>
    <g id="Page-1" stroke="none" stroke-width="1" fill="none" fill-rule="evenodd">
        <path d="M3.42857143,3.42857143 L3.42857143,5.14285714 C3.42857143,6.09107143 2.6625,6.85714286 1.71428571,6.85714286 C0.766071429,6.85714286 0,6.09107143 0,5.14285714 L0,2.57142857 C0,1.15178571 1.15178571,0 2.57142857,0 L12,0 L21.4285714,0 C22.8482143,0 24,1.15178571 24,2.57142857 L24,5.14285714 C24,6.09107143 23.2339286,6.85714286 22.2857143,6.85714286 C21.3375,6.85714286 20.5714286,6.09107143 20.5714286,5.14285714 L20.5714286,3.42857143 L13.7142857,3.42857143 L13.7142857,20.5714286 L16.2857143,20.5714286 C17.2339286,20.5714286 18,21.3375 18,22.2857143 C18,23.2339286 17.2339286,24 16.2857143,24 L7.71428571,24 C6.76607143,24 6,23.2339286 6,22.2857143 C6,21.3375 6.76607143,20.5714286 7.71428571,20.5714286 L10.2857143,20.5714286 L10.2857143,3.42857143 L3.42857143,3.42857143 Z" id="draw_ui_6_yellow" fill="#EFC816" fill-rule="nonzero"></path>
    </g>
</svg>