<?xml version="1.0" encoding="UTF-8"?>
<svg width="14.0625px" height="25px" viewBox="0 0 14.0625 25" version="1.1" xmlns="http://www.w3.org/2000/svg" xmlns:xlink="http://www.w3.org/1999/xlink">
    <title>draw_mark_2_green</title>
    <g id="green" stroke="none" stroke-width="1" fill="none" fill-rule="evenodd">
        <g id="Group-7-Copy-39" transform="translate(-15.000000, -10.000000)" fill="#86CA32" fill-rule="nonzero">
            <g id="draw_mark_2_green" transform="translate(15.000000, 10.000000)">
                <path d="M2.34375,7.03125 C2.34375,4.44241524 4.44241524,2.34375 7.03125,2.34375 C9.62008476,2.34375 11.71875,4.44241524 11.71875,7.03125 C11.71875,9.62008476 9.62008476,11.71875 7.03125,11.71875 C4.44241524,11.71875 2.34375,9.62008476 2.34375,7.03125 Z M8.203125,13.9648438 C11.5283203,13.4082031 14.0625,10.5126953 14.0625,7.03125 C14.0625,3.14941406 10.9130859,0 7.03125,0 C3.14941406,0 0,3.14941406 0,7.03125 C0,10.5175781 2.53417969,13.4082031 5.859375,13.9648438 L5.859375,23.828125 C5.859375,24.4775391 6.38183594,25 7.03125,25 C7.68066406,25 8.203125,24.4775391 8.203125,23.828125 L8.203125,13.9648438 Z" id="Shape"></path>
            </g>
        </g>
    </g>
</svg>