<?xml version="1.0" encoding="UTF-8"?>
<svg width="21px" height="24px" viewBox="0 0 21 24" version="1.1" xmlns="http://www.w3.org/2000/svg" xmlns:xlink="http://www.w3.org/1999/xlink">
    <title>draw_mark_6_yellow</title>
    <g id="Page-1" stroke="none" stroke-width="1" fill="none" fill-rule="evenodd">
        <g id="Group-7-Copy-19" transform="translate(-13.000000, -11.000000)" fill="#EFC816" fill-rule="nonzero">
            <g id="draw_mark_6_yellow" transform="translate(13.000000, 11.000000)">
                <path d="M1.5,0 C2.3296875,0 3,0.6703125 3,1.5 L3,2.25 L6.234375,1.44375 C8.0203125,0.9984375 9.9046875,1.2046875 11.5546875,2.0296875 C13.725,3.1171875 16.2796875,3.1171875 18.45,2.0296875 L18.9,1.8046875 C19.865625,1.3171875 21,2.0203125 21,3.0984375 L21,16.209375 C21,16.8328125 20.6109375,17.3953125 20.025,17.615625 L18.3984375,18.225 C16.2328125,19.0359375 13.8234375,18.909375 11.75625,17.878125 C9.9796875,16.9875 7.9453125,16.7671875 6.0140625,17.25 L3,18 L3,22.5 C3,23.3296875 2.3296875,24 1.5,24 C0.6703125,24 0,23.3296875 0,22.5 L0,18.75 L0,15.65625 L0,3 L0,1.5 C0,0.6703125 0.6703125,0 1.5,0 Z M3,8.7703125 L6,8.11875 L6,11.1890625 L3,11.840625 L3,14.90625 L5.2875,14.334375 C5.5265625,14.2734375 5.7609375,14.221875 6,14.1796875 L6,11.1890625 L7.8234375,10.7953125 C8.2125,10.7109375 8.60625,10.678125 9,10.696875 L9,7.696875 C9.6375,7.715625 10.275,7.81875 10.89375,7.996875 L12,8.3203125 L12,11.446875 L10.0453125,10.8703125 C9.703125,10.771875 9.3515625,10.7109375 9,10.6921875 L9,14.0390625 C10.021875,14.128125 11.0296875,14.353125 12,14.7140625 L12,11.446875 L13.0640625,11.7609375 C13.696875,11.9484375 14.34375,12.0609375 15,12.1078125 L15,9.09375 C14.634375,9.05625 14.26875,8.9859375 13.9125,8.8828125 L12,8.3203125 L12,5.4140625 C11.390625,5.2359375 10.790625,5.0015625 10.209375,4.7109375 C9.825,4.51875 9.4171875,4.3828125 9,4.2984375 L9,7.6921875 C8.390625,7.6734375 7.78125,7.7296875 7.1859375,7.8609375 L6,8.11875 L6,4.59375 L3,5.34375 L3,8.7703125 Z M15,15.7359375 C15.7875,15.80625 16.5890625,15.703125 17.34375,15.4171875 L18,15.1734375 L18,11.8078125 L17.6296875,11.8921875 C16.7671875,12.09375 15.88125,12.159375 15,12.103125 L15,15.73125 L15,15.7359375 Z M18,8.7328125 L18,5.409375 C17.0203125,5.6953125 16.0125,5.8359375 15,5.8359375 L15,9.09375 C15.6515625,9.159375 16.3125,9.1171875 16.9546875,8.971875 L18,8.728125 L18,8.7328125 Z" id="Shape"></path>
            </g>
        </g>
    </g>
</svg>