<?xml version="1.0" encoding="UTF-8"?>
<svg width="24px" height="24px" viewBox="0 0 24 24" version="1.1" xmlns="http://www.w3.org/2000/svg" xmlns:xlink="http://www.w3.org/1999/xlink">
    <title>draw_ui_6</title>
    <g id="v3擴充案" stroke="none" stroke-width="1" fill="none" fill-rule="evenodd">
        <g id="新增繪圖-儲存" transform="translate(-1011.000000, -864.000000)" fill="#979797" fill-rule="nonzero">
            <g id="Group-11" transform="translate(480.000000, 638.000000)">
                <g id="Group-10" transform="translate(197.000000, 216.000000)">
                    <g id="Group-7" transform="translate(324.000000, 0.000000)">
                        <path d="M13.4285714,13.4285714 L13.4285714,15.1428571 C13.4285714,16.0910714 12.6625,16.8571429 11.7142857,16.8571429 C10.7660714,16.8571429 10,16.0910714 10,15.1428571 L10,12.5714286 C10,11.1517857 11.1517857,10 12.5714286,10 L22,10 L31.4285714,10 C32.8482143,10 34,11.1517857 34,12.5714286 L34,15.1428571 C34,16.0910714 33.2339286,16.8571429 32.2857143,16.8571429 C31.3375,16.8571429 30.5714286,16.0910714 30.5714286,15.1428571 L30.5714286,13.4285714 L23.7142857,13.4285714 L23.7142857,30.5714286 L26.2857143,30.5714286 C27.2339286,30.5714286 28,31.3375 28,32.2857143 C28,33.2339286 27.2339286,34 26.2857143,34 L17.7142857,34 C16.7660714,34 16,33.2339286 16,32.2857143 C16,31.3375 16.7660714,30.5714286 17.7142857,30.5714286 L20.2857143,30.5714286 L20.2857143,13.4285714 L13.4285714,13.4285714 Z" id="draw_ui_6"></path>
                    </g>
                </g>
            </g>
        </g>
    </g>
</svg>